Casino (1995)

Director: Martin Scorsese

Casino has an explosive start. Literally. In 1983 a man gets into his car, turns the ignition, and it blows up. Cue typically impressive Saul Bass credits, showing the man falling through the flames. Who is/was he and how did he get into this situation? That's what the rest of Casino will explain. Back to 1973 and brilliant gambler Sam "Ace" Rothstein (Robert De Niro) has just been appointed to run the Tangiers casino in Las Vegas, as a front man for the Kansas City mob. Really, Sam wants to run the Tangiers his way, free from the unwanted interferences of the mob and the Vegas authorities - a bunch of shit kicking cowboys who love to remind outsiders of their precarious status. Sam works hard to establish his paradise on Earth, running a tight ship. Along the way, he falls for hustler Ginger (Sharon Stone). Then his psychotic gangster buddy, Nicky Santoro (Joe Pesci) shows up, wanting to share the paradise. Between the three of them, the fall is inevitable...

In many ways Casino could be understood as Goodfellas II: we've got Scorsese directing De Niro and Pesci in a Nicholas Pileggi scripted true-crime tale about one man's rise and fall (with that perennial Scorsese theme of redemption inevitably popping up along the way). And it's all fluidly edited by Thelma Schoonmaker, accompanied by a liberal dose of popular music (Casino's soundtrack CD was a double) But, whereas Goodfellas was more a straightforward tale about life as a wiseguy, Casino aspires towards a more mythic, universal, status. Sam is supposed to be a sort of Milton style Satan figure, whose pride brings about his downfall.

If Casino has a fault, it's that we've seen it all before: The actors, with the exception of Stone, who shows new depths as Ginger, are all playing roles we're familiar with. Pesci's Nicky is Pesci's Tommy, whilst De Niro had played Satan himself in Angel Heart. Scorsese may well be the most cineliterate and technically competent director around, but even he is running out of new moves. Thematically, his understanding and representation of women hasn't progressed: Ginger starts and finishes as the whore. Unlike the other points in the triangle, Sam and Nicky, she is denied a voice. Nevertheless, Scorsese and co. will never make a bad film, only another one.

When released, Casino had the most uses of the word "fuck" (422) in a feature length film. 

Media Info:
General
Complete name                    : J:\Seeding\Casino (1995)[DVDRip][big_dad_e™]\Casino (1995)[DVDRip][big_dad_e™].avi
Format                           : AVI
Format/Info                      : Audio Video Interleave
Format profile                   : OpenDML
File size                        : 3.62 GiB
Duration                         : 2h 58mn
Overall bit rate                 : 2 911 Kbps
Writing application              : Lavf51.12.1

Video
ID                               : 0
Format                           : MPEG-4 Visual
Format profile                   : Simple@L1
Format settings, BVOP            : No
Format settings, QPel            : No
Format settings, GMC             : No warppoints
Format settings, Matrix          : Default (H.263)
Codec ID                         : DX50
Codec ID/Hint                    : DivX 5
Duration                         : 2h 58mn
Bit rate                         : 2 581 Kbps
Width                            : 852 pixels
Height                           : 480 pixels
Display aspect ratio             : 16:9
Frame rate                       : 23.976 fps
Color space                      : YUV
Chroma subsampling               : 4:2:0
Bit depth                        : 8 bits
Scan type                        : Progressive
Bits/(Pixel*Frame)               : 0.263
Stream size                      : 3.21 GiB (89%)
Writing library                  : Lavc51.40.4

Audio
ID                               : 1
Format                           : MPEG Audio
Format version                   : Version 1
Format profile                   : Layer 3
Mode                             : Joint stereo
Codec ID                         : 55
Codec ID/Hint                    : MP3
Duration                         : 2h 58mn
Bit rate mode                    : Constant
Bit rate                         : 320 Kbps
Channel(s)                       : 2 channels
Sampling rate                    : 44.1 KHz
Stream size                      : 408 MiB (11%)
Alignment                        : Aligned on interleaves
Interleave, duration             : 26 ms (0.63 video frame)
Writing library                  : LAME3.97

File Scan:
Malwarebytes' Anti-Malware 1.46
www.malwarebytes.org

Database version: 5156

Windows 5.1.2600 Service Pack 3
Internet Explorer 8.0.6001.18702

11/20/2010 4:47:12 PM
mbam-log-2010-11-20 (16-47-12).txt

Scan type: Quick scan
Objects scanned: 6
Time elapsed: 14 second(s)

Memory Processes Infected: 0
Memory Modules Infected: 0
Registry Keys Infected: 0
Registry Values Infected: 0
Registry Data Items Infected: 0
Folders Infected: 0
Files Infected: 0

Memory Processes Infected:
(No malicious items detected)

Memory Modules Infected:
(No malicious items detected)

Registry Keys Infected:
(No malicious items detected)

Registry Values Infected:
(No malicious items detected)

Registry Data Items Infected:
(No malicious items detected)

Folders Infected:
(No malicious items detected)

Files Infected:
(No malicious items detected)

When using TPB please read these important notes:
  
01- Anti-malware apps may warn about keygens, patches, cracks, etc., because of 
    their capabilities, (generating codes, etc.). Sometimes they're added to 
    the virus/spyware database and will be detected as malware. If you don't trust
    the keygens, patches, cracks, etc., don't use them. 
    
02- Before running .exe-files, keygens, patches, cracks, etc., always check first 
    if they can be unpacked. Often some third party added a virus to the 
    original file, repacked it and uploaded it again.

03- Letting anti-malware apps send scan results to their companies can cause
    keygens, patches, cracks, etc., to be added to their virus-database.

04- Firewalls which are set to automatically determine connections will allow 
    apps & malware!. Avoid this by manually configuring your firewall.

05- Usually (new) torrents with many downloads and seeders in a brief period is
    suspicious! Torrents with the Skull & Crossbones icon are trusted.

06- Some people use multiple accounts and post fake comments 
    and/or files trying to spread confusion. They seldom seriously
    comment or have any torrents, or a just a few to look passable.

07- Clicking on unknown links can cause malware to be installed on your machine.
  
08- In general often there are more fake and negative comments than reliable and
    positive comments.

09- In some countries uploading/downloading copyright protected material is 
    forbidden, but showing some appreciation to reliable up-loaders is not.

10- Posting fake and negative comments or fake/infected uploads on TPB can result
    in getting banned from TPB!

Requests?  Find me on SuprBay.
 

For reporting bad or suspicious torrents:  
http://forum.suprbay.org/forumdisplay.php?fid=29

For more of my torrents: 
https://thepiratebay.org/user/big_dad_e/  (Secured)

All torrents scanned with:
Norton Anti-virus
Malwarebytes' Anti-malware
 
http://www.pirate-party.us/

ALWAYS SEED & THANKS SEEDERS!